#N canvas 1 45 1124 880 10;
#X obj 2 309 cnv 3 550 3 empty empty inlets 8 12 0 13 #dcdcdc #000000 0;
#X obj 2 344 cnv 3 550 3 empty empty outlets 8 12 0 13 #dcdcdc #000000 0;
#X obj 2 379 cnv 3 550 3 empty empty arguments 8 12 0 13 #dcdcdc #000000 0;
#X obj 141 318 cnv 17 3 17 empty empty 0 5 9 0 16 #dcdcdc #9c9c9c 0;
#X obj 2 412 cnv 15 552 21 empty empty empty 20 12 0 14 #e0e0e0 #202020 0;
#X text 241 354 NONE;
#X text 241 389 NONE;
#X text 175 319 load <symbol>;
#X obj 306 4 cnv 15 250 40 empty empty empty 12 13 0 18 #7c7c7c #e0e4dc 0;
#N canvas 382 141 749 319 (subpatch) 0;
#X coords 0 -1 1 1 249 39 2 100 100;
#X restore 305 3 pd;
#X obj 315 18 cnv 10 10 10 empty empty Load\ externals\ written\ in\ Lua 0 6 2 20 #7c7c7c #e0e4dc 0;
#X obj 3 3 cnv 15 301 42 empty empty pdluajit 20 20 2 37 #e0e0e0 #000000 0;
#N canvas 0 22 450 278 (subpatch) 0;
#X coords 0 1 100 -1 299 39 1 0 0;
#X restore 3 3 graph;
#X text 259 319 - load and run a '*.lua' file;
#X obj 55 269 pdluajit;
#X obj 424 233 pdluaxjit;
#X text 191 235 <-- load and run a Lua file;
#X msg 55 236 load hello-gui.pd_lua;
#X msg 424 263 \; pdluaxjit reload;
#X text 20 149 [pdluajit] uses LuaJIT (v2.1) \, which is based on Lua 5.1. A compatibility layer (compat53) is included \, providing partial support for Lua 5.2/5.3 features \, though not all newer syntax is available. LuaJIT runs in a separate environment from the standard [pdlua] loader. Global variables and state are not shared between the two systems., f 87;
#X text 20 68 [pdluajit] offers an alternative Lua loader to [pdlua] \, based on LuaJIT instead of Lua. LuaJIT offers a few advantages over regular Lua \, such as significantly better performance and FFI (Foreign Function Interface) capabilities. Lua externals with the .pd_luajit will automatically get picked up by [pdluajit] instead of [pdlua]. Comparitively \, the regular [pdlua] object offers more modern Lua syntax than [pdluajit] and better standard compliance, f 87;
#X connect 17 0 14 0;
