#N canvas 33 78 1057 730 12;
#X declare -lib pdlua;
#X obj 830 39 declare -lib pdlua;
#X obj 66 245 bng 25 250 50 0 empty empty empty 0 -10 0 12 #fcfcfc #000000 #000000;
#X obj 323 243 bng 25 250 50 0 empty empty empty 0 -10 0 12 #fcfcfc #000000 #000000;
#X text 108 244 <- print pdlua benchmark to console, f 24;
#X text 378 241 <- print pdluajit benchmark to console, f 28;
#X text 309 474 pdlua;
#X text 506 473 pdluajit;
#X text 156 508 file extension;
#X text 299 506 .pd_lua;
#X text 497 505 .pd_luajit;
#X text 178 539 Lua version;
#X text 313 537 5.4;
#X text 487 537 5.1 + compat53;
#X text 178 569 Performance;
#X text 298 569 baseline;
#X text 495 567 ~6x faster;
#X text 57 102 Currently \, the standard pdlua parser is based on Lua 5.4. The pdluajit parser is based on Lua 5.1 \, with a compatibility layer (compat53) that makes some (but not all) of the Lua 5.3 syntax available as well. The LuaJIT version used is v2.1, f 93;
#X text 50 157 Note that Lua and LuaJIT have their own separate environment \, so while global variables declared inside Lua can be seen from other files \, they will not cross the Lua/LuaJIT border, f 94;
#X text 58 42 pdlua can either use Lua or LuaJIT as its parser. While the regular Lua parser offers more modern Lua syntax \, the LuaJIT parser offers much better performance. Files that end with .pd_lua will be picked up by Lua \, whereas files ending with .pd_luajit will run in LuaJIT, f 93;
#X obj 322 310 luajit-benchmark;
#X obj 65 309 lua-benchmark;
#X text 116 599 Standard complicance;
#X text 294 601 complete;
#X text 497 601 incomplete;
#X text 233 629 FFI;
#X text 320 629 no;
#X text 523 630 yes;
#X obj 611 394 pdluajit;
#X msg 611 366 load luajit-ffi.lua;
#X text 53 359 Additionally \, pdluajit has the ability to directly interface with C functions \, using its FFI (Foreign Function Interface) abilities. You can use this to load shared libraries and call functions from it \, or directly interface with pure-data's API functions., f 75;
#X text 769 362 <- Directly interface with Pd's API to print audio device into to the console, f 31;
#X connect 1 0 20 0;
#X connect 2 0 19 0;
#X connect 28 0 27 0;
