#N canvas 849 44 951 1016 10;
#X declare -lib pdlua;
#X declare -lib pdluajit;
#X obj 784 43 declare -lib pdlua;
#X obj 33 87 props;
#X text 25 18 pdlua's properties allow you to add properties panels to both text and gui pdlua objects.;
#X text 175 159 <-- plugdata: select in editmode to view properties;
#X text 175 137 <-- pure-data/purr-data: right-click->properties to view properties, f 68;
#X text 17 324 To enable properties \, define a properties(p) function like this:, f 64;
#X text 15 417 end;
#X text 15 346 function yourclass:properties(p);
#X text 32 363 p:new_frame("First CheckBox" \, 2);
#X text 32 380 p:add_check("Checkbox 1" \, "updatecheckbox1" \, self.checkbox1), f 61;
#X text 22 294 -------------- Properties --------------;
#X text 29 583 -------------- API: --------------;
#X text 21 450 The first three arguments to each property add function are \; label \; callback \; initial value, f 61;
#X text 111 461 -- the text shown besides the property \; -- the lua function that gets called on change \; -- the value shown when first opening the properties panel, f 82;
#X text 18 512 To ensure property values persist between opening/closing the properties panel \, it is recommended that you set the initial value using a variable (stored on self) \, and update that value in the change callback., f 97;
#X text 366 665 -- Add a section with a title. This is required before adding properties. Properties get added to the last defined frame. The column argument is ignored for plugdata \; -- Add a checkbox property \; -- Add a text input property \; -- Add a color picker property \; -- Add a floating-point number property \; -- Add an integer number property \; -- Add a combo box property \, options should be a list of items in curly brackets, f 104;
#X text 33 397 p:add_text("Text 1" \, "updatetext1" \, self.textinput1), f 61;
#X text 30 629 -- Functions you can call \; pd:Class:properties(p) \; \; p:new_frame(name \, column) \; \; p:add_check(label \, callback \, init) \; p:add_text(label \, callback \, init) \; p:add_color(label \, callback \, init) \; p:add_float(label \, callback \, init \, min=-inf \, max=inf) \; p:add_int(label \, callback \, init \, min=-inf \, max=inf) \; p:add_combo(label \, callback \, init \, options) \;;
#X obj 766 85 declare -lib pdluajit;
